<svg xmlns="http://www.w3.org/2000/svg" viewbox="0 0 90 32">
  <path d="M 77.885548,0.61989157 C 72.25329,1.4995086 72.73118,8.3812727 75.014643,11.027539 77.794504,14.642123 81.948033,13.996645 82.7,19.58 c 0,2.94 -2.3,5.32 -5.1,5.32 -2.8,0 -5.1,-2.38 -5.1,-5.32 0,-1.98 1.06,-3.7 2.6,-4.63 -2.7,-1.95 -3.66,-3.7 -4.28,-6.1 -3.05,2.25 -5.06,5.97 -5.06,10.16 -0.02,6.82 5.3,12.36 11.8,12.36 6.5,0 11.8,-5.54 11.8,-12.35 C 89.462878,8.5136945 78.924003,8.297524 77.99815,2.2651268 77.780695,1.0316967 77.885548,0.61989157 77.885548,0.61989157 z M 30.66,12.5 l 1.76,-3.37 8,0 -7.54,13.97 0,8.26 -6.8,0 0,-8.26 -7.78,-13.97 8.14,0 2.94,5.8 z M 11.06,9.12 c 2.3,0 4,0.6 5.13,1.78 1.12,1.18 1.7,2.88 1.7,5.05 0,2.25 -0.63,4 -1.87,5.26 -1.23,1.26 -3.1,1.9 -5.65,1.9 l -2.65,0 0,8.26 -7.1,0 0,-22.25 z m -1.3,9 c 1.92,0 1.87,-3.37 0,-3.37 l -2.06,0 0,3.4 z m 33.66,11.3 0,-20.29 10.03,0 c 1.87,0 3.28,0.2 4.27,0.55 0.97,0.37 1.77,1.06 2.37,2.04 0.6,1 0.9,2.2 0.9,3.6 0,1.23 -0.2,3 -0.68,3.9 -0.45,0.9 -1.08,1.62 -1.9,2.18 -0.5,0.38 -1.02,0.64 -1.44,0.8 l 5.6,9.2 -8.3,-0.03 -4.1,-8.2 0,8.2 -6.77,0 z m 7.85,-11.3 1.02,0 c 2.12,0 2.17,-3.35 0,-3.37 l -2.1,0 0,3.4 z"/>
</svg>
