<svg xmlns="http://www.w3.org/2000/svg" xmlns:xlink="http://www.w3.org/1999/xlink" width="1200" height="670">
  <style>
    .text {
      fill: #d0cfce;
      font-family: "PT Sans";
    }
    #divide,  #border {
      fill: none;
      stroke: #d0cfce;
      stroke-width: 2 
    }
    #bg, #right {
      fill: #000;
      opacity: 0.15;
    }
    #checkbox {
      fill: #fff;
      stroke: #d0cfce;
      rx: 1.77;
      ry: 1.18;
      opacity: 0.9;
    }
    #submit > rect {
      fill: #24ce7b; 
    }
    #submit > text > tspan{
      fill: #fff;
    }
    #pyrocms {
      fill: #fff;
      stroke: #fff;
      fill-opacity: 0;
      stroke-opacity: 0.5;
      stroke-width: 1.25;
      stroke-dasharray:406 408;
      stroke-dashoffset:407;
      animation:animate 5555ms ease-in 0ms forwards;
    }
    @keyframes animate { 
        100%{stroke-opacity: 0; fill-opacity: 0.5;stroke-dashoffset:0}
          60%{stroke-opacity: 0; fill-opacity: 0.7}
          38%{fill-opacity: 0}
          25%{stroke-opacity: 0.5; fill-opacity: 0}
    }
  </style>
  <g transform="scale(0.6)">
    <image width="2000" height="1333" xlink:href="file:///Users/adnan/ibuild/mcwap/core/pyrocms/pyrocms-theme/resources/img/backgrounds/power-lines.jpg"/>
  </g>
  <rect id="right" width="499.77" height="674.76" x="703.14" y="-1.61" rx="1.77" ry="1.18"/>
  <text class="text" x="839.44" y="254.74">
    <tspan x="839.44" y="254.74" font-size="24">Login to your account</tspan>
  </text>
  <g id="form">
    <path id="divide" d="M839.44 313.27h219.6"/>
    <rect id="border" width="220" height="63" x="839.44" y="281.63" ry="6.83" rx="6.55"/>
    <rect id="bg" width="219.73" height="63.06" x="839.91" y="281.58" ry="5.52" rx="5.72"/>
    <path id="icons" fill="#d0cfce" d="M1035.56 293.47c-1 0-1.8.74-1.8 1.62v.1l6.93 5.18 6.8-4.6v-.7c0-.87-.8-1.6-1.8-1.6h-10.14zm-1.8 3v6.34c0 .9.8 1.6 1.8 1.6h10.13c1 0 1.8-.7 1.8-1.6V297l-6.56 4.4-.28.23-.32-.22-6.6-4.93zM1041.13 325.4c-1.83 0-3.4 1.36-3.4 3.1v1.4h-.14c-.6 0-1.07.5-1.07 1.13v3.63c0 .6.48 1.12 1.06 1.12h6.8c.6 0 1.07-.5 1.07-1.12v-3.63c0-.57-.42-1.02-.94-1.1v-1.43c0-1.75-1.58-3.1-3.4-3.1zm0 1.38c1.17 0 2.03.8 2.03 1.72v1.4h-4.07v-1.4c0-.92.85-1.72 2.03-1.72z"/>
    <text x="850.72" y="301.73" class="text">
      <tspan x="850.72" y="301.73" font-size="14">Email</tspan>
    </text>
    <text x="851.14" y="333.61" class="text">
      <tspan x="851.14" y="333.61" font-size="14">Password</tspan>
    </text>
    <rect id="checkbox" width="11" height="11" x="839.46" y="408.84"/>
    <text x="853.93" y="418.61" class="text">
      <tspan x="853.93" y="418.61" font-size="14">Remember me</tspan>
    </text>
    <g id="submit">
      <rect width="221.03" height="31.81" x="839.05" y="359.22" rx="0" ry="0"/>
      <text class="text" x="935" y="380">
        <tspan x="933.53" y="379.07" font-size="14">Login</tspan>
      </text>
    </g>
  </g>
  <g transform="translate(145, 255) scale(4.6)">
    <path id="pyrocms" d="M 77.885548,0.61989157 C 72.25329,1.4995086 72.73118,8.3812727 75.014643,11.027539 77.794504,14.642123 81.948033,13.996645 82.7,19.58 c 0,2.94 -2.3,5.32 -5.1,5.32 -2.8,0 -5.1,-2.38 -5.1,-5.32 0,-1.98 1.06,-3.7 2.6,-4.63 -2.7,-1.95 -3.66,-3.7 -4.28,-6.1 -3.05,2.25 -5.06,5.97 -5.06,10.16 -0.02,6.82 5.3,12.36 11.8,12.36 6.5,0 11.8,-5.54 11.8,-12.35 C 89.462878,8.5136945 78.924003,8.297524 77.99815,2.2651268 77.780695,1.0316967 77.885548,0.61989157 77.885548,0.61989157 z M 30.66,12.5 l 1.76,-3.37 8,0 -7.54,13.97 0,8.26 -6.8,0 0,-8.26 -7.78,-13.97 8.14,0 2.94,5.8 z M 11.06,9.12 c 2.3,0 4,0.6 5.13,1.78 1.12,1.18 1.7,2.88 1.7,5.05 0,2.25 -0.63,4 -1.87,5.26 -1.23,1.26 -3.1,1.9 -5.65,1.9 l -2.65,0 0,8.26 -7.1,0 0,-22.25 z m -1.3,9 c 1.92,0 1.87,-3.37 0,-3.37 l -2.06,0 0,3.4 z m 33.66,11.3 0,-20.29 10.03,0 c 1.87,0 3.28,0.2 4.27,0.55 0.97,0.37 1.77,1.06 2.37,2.04 0.6,1 0.9,2.2 0.9,3.6 0,1.23 -0.2,3 -0.68,3.9 -0.45,0.9 -1.08,1.62 -1.9,2.18 -0.5,0.38 -1.02,0.64 -1.44,0.8 l 5.6,9.2 -8.3,-0.03 -4.1,-8.2 0,8.2 -6.77,0 z m 7.85,-11.3 1.02,0 c 2.12,0 2.17,-3.35 0,-3.37 l -2.1,0 0,3.4 z"/>
  </g>
</svg>
